<?xml version="1.0" standalone="no"?>
<!DOCTYPE svg PUBLIC "-//W3C//DTD SVG 20010904//EN"
 "http://www.w3.org/TR/2001/REC-SVG-20010904/DTD/svg10.dtd">
<svg version="1.0" xmlns="http://www.w3.org/2000/svg"
 width="600.000000pt" height="600.000000pt" viewBox="0 0 600.000000 600.000000"
 preserveAspectRatio="xMidYMid meet">
<g transform="translate(0.000000,600.000000) scale(0.100000,-0.100000)"
fill="#000000" stroke="none">
<path d="M2747 5385 c-506 -61 -923 -254 -1275 -590 -225 -214 -423 -510 -541
-808 -182 -459 -209 -981 -75 -1444 108 -374 290 -680 569 -958 340 -340 773
-556 1265 -632 168 -25 462 -23 635 6 493 82 904 291 1245 632 182 183 317
371 426 594 201 414 268 900 188 1359 -122 698 -564 1306 -1174 1615 -390 197
-838 277 -1263 226z m203 -17 c0 -10 2 -10 9 0 5 9 32 12 87 11 43 -1 83 -4
88 -7 5 -2 41 -6 80 -7 39 -2 100 -8 136 -15 36 -6 85 -15 110 -20 25 -5 58
-13 73 -19 16 -6 42 -11 58 -11 16 0 29 -4 29 -10 0 -5 9 -10 20 -10 19 0 70
-17 135 -45 45 -19 128 -47 142 -48 7 0 10 -4 7 -8 -2 -4 13 -13 35 -20 22 -7
38 -16 35 -20 -3 -5 5 -9 17 -9 12 0 37 -11 55 -25 18 -14 36 -25 39 -25 17 0
115 -66 115 -77 0 -7 3 -12 8 -11 13 4 66 -30 105 -66 20 -20 37 -33 37 -29 0
3 11 -4 25 -17 13 -12 22 -27 19 -31 -3 -5 2 -6 10 -3 9 3 19 -3 26 -16 6 -11
15 -18 19 -16 4 3 23 -10 41 -29 19 -19 30 -35 24 -36 -5 0 1 -4 14 -9 12 -5
27 -21 32 -35 6 -15 14 -23 20 -20 5 3 10 -3 10 -15 0 -11 8 -24 18 -27 28
-11 104 -101 101 -120 -4 -22 2 -32 16 -27 9 4 18 -2 24 -17 5 -13 18 -34 29
-45 12 -12 18 -25 15 -28 -4 -4 7 -21 24 -39 17 -17 34 -42 38 -54 3 -13 11
-23 17 -23 5 0 7 -7 4 -16 -4 -10 -2 -13 6 -8 7 5 9 2 5 -9 -3 -9 -2 -17 3
-19 4 -2 27 -39 50 -82 24 -47 34 -74 24 -65 -16 12 -17 12 -9 -1 5 -8 17 -21
27 -28 12 -8 17 -21 13 -31 -3 -10 1 -24 10 -31 8 -7 15 -18 15 -24 0 -6 7
-24 15 -39 9 -18 10 -25 2 -20 -7 4 -4 -5 6 -21 10 -15 16 -34 13 -42 -3 -8
-2 -13 3 -10 4 3 16 -25 25 -62 10 -37 22 -78 27 -92 5 -14 7 -41 4 -60 -3
-25 -2 -31 5 -20 8 12 10 8 12 -15 1 -16 1 -39 1 -50 0 -11 3 -22 8 -25 15
-10 24 -166 23 -405 -2 -228 -4 -248 -33 -390 -37 -177 -31 -150 -65 -255 -29
-89 -94 -251 -104 -260 -3 -3 -2 3 1 13 4 11 3 16 -4 12 -5 -4 -7 -14 -5 -23
3 -10 -5 -35 -19 -57 -13 -22 -36 -64 -50 -92 -14 -29 -30 -55 -35 -58 -5 -3
-17 -22 -26 -41 -9 -19 -19 -32 -22 -29 -3 3 -14 -12 -24 -32 -25 -50 -68
-120 -68 -111 0 4 -13 -5 -28 -20 -15 -15 -26 -31 -23 -36 2 -5 -3 -7 -12 -3
-10 4 -14 2 -11 -7 5 -13 -121 -146 -138 -146 -5 0 -6 5 -2 12 5 7 3 8 -5 3
-9 -5 -10 -10 -2 -18 7 -7 -2 -21 -31 -46 -23 -20 -46 -35 -50 -34 -4 2 -7 0
-5 -5 1 -4 0 -7 -3 -7 -3 -1 -18 -13 -35 -29 -55 -51 -68 -61 -61 -49 5 9 2
11 -8 7 -9 -3 -14 -11 -13 -17 1 -6 -8 -16 -20 -22 -13 -7 -31 -19 -41 -28
-10 -10 -23 -17 -29 -17 -6 0 -14 -7 -17 -16 -3 -9 -12 -14 -19 -11 -8 3 -19
-4 -25 -14 -7 -10 -18 -19 -25 -19 -7 0 -28 -11 -47 -25 -19 -14 -40 -25 -48
-25 -8 0 -25 -9 -39 -19 -13 -11 -31 -17 -39 -14 -7 3 -17 -2 -20 -10 -3 -9
-22 -21 -42 -28 -21 -7 -53 -19 -72 -27 -19 -9 -37 -16 -40 -17 -3 -1 -12 -5
-20 -8 -34 -14 -197 -66 -220 -71 -14 -2 -52 -12 -85 -20 -33 -9 -78 -18 -100
-20 -22 -2 -87 -10 -145 -16 -150 -18 -454 -7 -580 21 -52 11 -107 21 -123 20
-15 0 -25 4 -22 9 3 4 -3 6 -13 3 -10 -2 -38 3 -62 12 -25 9 -56 18 -70 21
-14 2 -34 8 -45 13 -11 5 -47 20 -80 32 -33 13 -71 32 -85 44 -21 18 -23 18
-10 1 15 -19 14 -19 -18 -2 -18 9 -30 21 -27 26 4 6 -1 7 -11 3 -12 -4 -15 -3
-10 5 4 8 2 10 -8 6 -8 -3 -25 0 -38 7 -13 7 -25 14 -28 14 -19 3 -70 37 -65
44 2 5 -3 8 -13 7 -9 0 -16 5 -14 12 1 8 -2 11 -8 7 -13 -8 -83 32 -161 92
-31 23 -60 43 -64 43 -3 0 -12 6 -19 13 -7 6 -30 25 -50 41 -20 15 -33 33 -29
39 3 5 1 7 -5 3 -6 -3 -17 3 -26 15 -9 13 -19 18 -28 13 -7 -4 -4 3 7 17 14
17 15 20 3 10 -18 -13 -43 -6 -33 10 3 5 -1 6 -10 3 -11 -5 -14 -2 -9 10 5 13
2 15 -12 10 -11 -4 -16 -4 -12 0 4 4 -9 21 -28 38 -19 16 -31 34 -28 39 3 5 0
9 -6 9 -6 0 -21 10 -33 21 -12 12 -15 18 -7 14 8 -5 1 5 -16 21 -17 16 -34 39
-38 51 -4 13 -11 22 -15 20 -10 -2 -101 127 -101 143 0 6 -5 8 -11 4 -7 -4
-10 -1 -7 7 3 8 -4 22 -14 31 -12 10 -17 22 -12 29 5 8 3 9 -6 4 -9 -6 -12 -4
-8 7 4 8 -2 20 -13 26 -10 7 -19 18 -19 26 0 7 -6 19 -14 25 -8 7 -18 26 -21
42 -4 16 -11 29 -16 29 -5 0 -9 5 -9 10 0 6 -10 32 -21 58 -12 26 -30 65 -40
87 -14 32 -43 119 -76 230 -59 201 -89 502 -73 732 6 70 13 144 16 163 4 19 8
49 10 65 2 17 7 37 10 45 3 8 8 29 11 45 2 17 9 34 14 40 5 5 9 14 9 20 0 5
-5 3 -11 -5 -9 -12 -10 -11 -4 5 4 11 8 25 9 32 1 7 5 16 9 19 4 4 7 14 7 22
0 26 51 182 64 194 7 7 11 19 8 26 -2 7 11 43 29 80 18 37 32 70 31 75 -1 4 3
7 9 7 6 0 9 7 5 15 -3 8 -2 15 2 15 4 0 23 31 42 68 19 37 37 69 40 72 3 3 11
17 19 33 8 15 18 27 23 27 5 0 6 5 3 10 -3 6 -1 10 4 10 6 0 11 4 11 9 0 13
55 95 75 111 9 8 23 26 31 42 9 18 20 26 27 22 7 -4 9 -4 5 1 -11 11 31 67 44
59 7 -4 8 -2 4 4 -8 14 79 106 93 98 5 -3 15 2 22 12 13 15 12 16 -3 3 -11 -8
-18 -9 -18 -3 0 15 56 53 66 44 4 -4 2 2 -6 12 -8 11 -10 17 -4 13 6 -3 21 7
33 23 12 18 31 30 44 30 18 0 19 2 7 10 -13 8 -12 10 5 11 11 1 26 2 32 2 7
-1 11 3 8 7 -4 7 18 34 52 60 44 34 113 81 113 76 0 -5 64 34 88 55 7 6 33 19
57 30 24 11 47 24 50 29 4 6 10 8 15 5 5 -3 26 5 47 19 21 14 58 32 83 41 25
8 52 18 60 22 8 3 23 5 34 4 11 -2 16 2 12 8 -5 7 2 11 17 11 13 0 37 6 53 14
85 43 339 92 513 101 46 3 86 7 89 10 10 10 32 5 32 -7z"/>
<path d="M2808 5085 c-3 -3 -32 -8 -64 -12 -81 -7 -97 -10 -114 -16 -8 -3 -34
-8 -57 -11 -23 -3 -54 -11 -70 -17 -15 -6 -29 -10 -30 -10 -2 0 -17 -5 -35
-10 -18 -6 -40 -12 -49 -14 -15 -3 -40 -13 -154 -60 -16 -7 -56 -22 -87 -35
-34 -13 -55 -27 -51 -33 3 -6 1 -7 -6 -3 -6 4 -23 -2 -37 -13 -29 -23 -49 -28
-38 -9 4 7 3 8 -5 4 -6 -4 -9 -11 -6 -16 3 -5 -4 -11 -15 -15 -11 -3 -20 -11
-20 -17 0 -6 -9 -8 -19 -5 -15 3 -18 1 -14 -11 4 -10 2 -13 -5 -8 -6 3 -21 -4
-34 -17 l-23 -23 26 -29 c15 -15 25 -34 22 -42 -3 -7 0 -13 7 -13 6 0 8 6 4
13 -4 7 -3 9 2 4 5 -5 9 -12 9 -17 0 -8 6 -15 62 -75 16 -16 42 -48 58 -70 17
-22 44 -53 60 -69 17 -16 25 -26 18 -22 -6 3 -15 1 -19 -5 -4 -7 -3 -9 4 -5
13 8 63 -44 55 -57 -3 -6 -1 -7 4 -4 6 4 18 -3 26 -16 8 -12 23 -31 33 -42 11
-11 31 -36 46 -57 15 -20 35 -43 43 -52 9 -9 14 -20 10 -26 -4 -6 1 -7 11 -3
13 5 16 3 11 -10 -4 -10 -2 -16 6 -14 7 1 11 -4 10 -10 -2 -7 2 -12 8 -10 6 1
23 -18 36 -43 13 -25 22 -36 19 -26 -5 16 -4 17 8 7 8 -7 12 -19 9 -27 -3 -8
-2 -14 3 -12 5 2 19 -7 32 -20 12 -12 19 -22 15 -22 -4 0 8 -15 25 -33 18 -18
29 -37 25 -42 -5 -4 -2 -5 5 -1 9 6 11 1 8 -17 -3 -16 1 -24 10 -24 8 0 11 5
6 12 -4 6 1 2 11 -10 10 -11 29 -32 43 -47 14 -15 25 -30 24 -33 0 -5 17 -25
60 -73 48 -52 109 -140 102 -147 -4 -5 -1 -5 6 -1 7 4 12 2 12 -5 0 -7 3 -9 6
-6 4 4 19 -11 33 -33 14 -21 57 -76 95 -121 38 -45 63 -79 55 -74 -8 4 -5 -2
6 -13 36 -38 44 -50 37 -56 -3 -4 1 -4 11 0 11 4 17 1 17 -7 0 -7 7 -21 16
-31 19 -20 20 -19 -56 -38 -25 -7 -55 -22 -68 -33 -13 -12 -24 -20 -25 -17 -1
2 -13 -3 -27 -13 -13 -9 -20 -17 -15 -17 5 0 0 -6 -10 -14 -16 -11 -21 -11
-32 0 -7 7 -13 16 -13 21 0 4 -22 31 -49 60 -27 28 -46 55 -43 59 4 4 2 4 -5
0 -14 -8 -47 49 -38 64 3 5 -3 7 -14 5 -20 -4 -36 19 -26 36 4 5 -2 6 -12 2
-16 -6 -16 -5 -4 11 11 13 12 19 2 29 -10 9 -11 8 -6 -5 11 -27 -2 -22 -35 15
-16 17 -27 38 -25 45 3 7 1 11 -4 8 -11 -7 -73 59 -64 69 5 4 2 5 -6 0 -10 -6
-12 -2 -6 16 4 16 3 20 -3 11 -7 -11 -14 -7 -30 16 -12 16 -18 33 -14 37 4 5
2 5 -4 2 -7 -4 -18 1 -25 10 -12 14 -12 16 1 8 13 -8 13 -6 1 8 -7 9 -17 14
-22 11 -5 -3 -6 3 -2 12 4 11 2 15 -4 11 -6 -4 -19 3 -29 16 -11 12 -12 16 -4
10 13 -10 16 -8 16 6 0 12 -5 17 -14 13 -17 -6 -62 47 -54 66 4 11 6 11 13 0
5 -7 9 -8 9 -3 0 19 -78 98 -90 90 -16 -10 -67 62 -61 88 1 5 -4 5 -10 2 -8
-5 -8 -10 0 -18 6 -6 11 -16 11 -21 0 -6 -16 14 -36 44 -20 30 -48 69 -64 85
-84 89 -120 131 -120 142 0 6 -8 18 -18 25 -10 7 -31 32 -48 55 -17 24 -35 39
-39 35 -5 -4 -5 1 -2 10 3 10 2 20 -4 23 -5 4 -6 11 -3 17 4 7 2 8 -5 4 -7 -5
-8 -13 -4 -20 4 -6 -4 2 -19 19 -15 16 -28 34 -28 38 0 5 -5 5 -11 1 -8 -4 -9
1 -5 17 3 13 3 18 0 11 -5 -10 -9 -10 -20 -1 -8 6 -14 17 -14 23 0 16 -120
146 -135 146 -7 0 -18 -7 -25 -15 -7 -8 -17 -12 -23 -8 -5 3 -8 2 -5 -3 3 -5
-8 -25 -24 -44 -17 -19 -27 -28 -23 -20 5 9 4 12 -1 7 -5 -5 -9 -14 -9 -20 -1
-7 -7 -11 -14 -9 -7 1 -10 -2 -7 -6 7 -12 -28 -44 -38 -35 -4 4 -4 0 -1 -9 4
-10 -8 -30 -34 -58 -22 -24 -38 -47 -35 -51 3 -5 -2 -9 -10 -9 -10 0 -13 -6
-9 -17 4 -11 3 -14 -5 -9 -7 4 -12 2 -12 -6 0 -7 -13 -32 -28 -55 -20 -31 -31
-40 -39 -32 -8 8 -13 7 -18 -2 -5 -7 -4 -10 3 -5 13 8 13 -34 -1 -51 -5 -7 -6
-13 -1 -13 5 0 4 -4 -1 -8 -6 -4 -24 -34 -39 -67 -16 -33 -32 -68 -37 -77 -5
-10 -16 -37 -25 -60 -8 -24 -24 -68 -35 -98 -28 -76 -77 -274 -84 -340 -4 -30
-10 -59 -14 -65 -13 -16 -6 -402 8 -485 18 -106 78 -344 97 -388 9 -20 20 -46
24 -57 45 -109 114 -248 145 -290 33 -46 55 -96 48 -109 -4 -6 1 -5 11 3 15
12 17 12 14 0 -2 -8 3 -13 10 -11 8 1 11 -1 8 -6 -3 -4 6 -21 19 -36 14 -16
22 -34 18 -40 -3 -6 -3 -8 2 -4 4 4 16 -2 27 -15 47 -56 105 -122 128 -146 35
-35 100 -92 100 -87 0 2 17 -12 38 -33 21 -20 36 -39 34 -43 -2 -4 4 -5 12 -2
9 3 16 1 16 -6 0 -6 5 -8 10 -5 5 3 10 3 10 -2 0 -4 14 -16 31 -26 22 -12 29
-22 25 -34 -5 -13 -4 -14 9 -3 14 12 19 7 16 -13 -1 -5 3 -6 9 -2 5 3 34 -10
64 -29 30 -19 57 -32 60 -29 3 4 6 1 6 -6 0 -7 5 -9 10 -6 6 3 13 -1 16 -9 3
-9 12 -16 19 -16 18 0 75 -33 75 -43 0 -5 4 -6 10 -2 5 3 36 -6 69 -20 33 -14
68 -25 78 -25 15 0 16 -2 3 -10 -12 -7 -8 -10 14 -10 36 0 96 -21 96 -33 0 -5
7 -6 17 -3 9 4 37 0 63 -9 25 -8 77 -20 116 -25 76 -11 98 -15 164 -25 25 -4
115 -6 200 -5 215 3 229 4 224 12 -3 4 6 6 18 6 51 -3 109 2 104 10 -2 4 3 8
12 9 30 2 86 15 127 28 22 7 59 16 83 20 26 4 40 11 35 17 -4 7 2 9 15 6 12
-4 20 -2 16 3 -3 5 3 9 13 9 10 0 31 7 47 15 15 8 33 12 39 8 6 -3 7 -1 3 5
-4 7 7 13 29 18 20 3 32 10 28 17 -3 5 -2 7 4 4 12 -8 104 38 95 47 -3 4 1 4
10 1 9 -4 19 -2 23 4 9 15 28 14 19 -1 -4 -8 -3 -10 2 -5 5 5 9 14 9 20 0 5 6
12 14 15 9 3 11 0 6 -8 -5 -9 -4 -11 4 -6 6 4 9 11 6 16 -3 5 4 11 15 15 11 3
20 11 20 16 0 6 4 8 9 5 11 -7 32 17 36 41 1 10 -9 30 -22 45 -14 14 -25 30
-25 35 0 4 -4 7 -9 5 -5 -1 -14 9 -19 22 -5 13 -19 31 -32 40 -13 9 -22 19
-20 21 1 3 0 4 -3 3 -6 -3 -36 50 -39 69 -2 14 -14 28 -24 28 -14 0 -48 42
-44 53 2 7 -2 11 -10 10 -7 -2 -12 3 -10 10 1 8 -1 11 -6 8 -5 -3 -17 9 -27
26 -10 17 -25 38 -34 48 -48 50 -81 94 -81 106 0 8 -7 14 -15 14 -9 0 -12 6
-8 15 3 10 0 15 -8 13 -8 -2 -13 3 -11 12 2 8 0 12 -3 8 -8 -8 -45 33 -45 49
0 4 5 1 11 -7 9 -13 10 -13 6 0 -2 8 -12 14 -22 12 -13 -3 -16 1 -11 13 3 9 2
13 -4 10 -5 -3 -15 5 -21 19 -7 14 -17 23 -22 19 -7 -4 -8 1 -3 13 4 10 4 15
0 11 -7 -7 -54 41 -54 55 0 4 -9 16 -21 27 -12 11 -18 24 -15 30 4 7 1 8 -8 5
-9 -3 -16 -2 -16 4 0 5 -13 24 -29 41 -17 18 -28 38 -24 47 4 10 0 12 -13 7
-11 -4 -15 -3 -11 4 4 6 0 14 -9 17 -9 3 -12 11 -8 18 4 7 4 10 0 6 -12 -10
-69 59 -60 74 4 7 4 10 -1 6 -7 -6 -43 33 -93 100 -9 13 -25 32 -34 42 -10 11
-15 27 -12 37 4 12 3 14 -3 6 -7 -9 -18 -3 -43 24 -19 20 -28 33 -20 28 8 -4
2 4 -15 20 -21 20 -26 30 -16 33 13 4 22 11 73 55 25 20 34 22 22 4 -5 -7 -2
-5 8 5 19 21 122 26 134 7 3 -6 14 -9 25 -6 11 3 24 -4 36 -21 10 -14 27 -35
39 -47 11 -12 18 -28 16 -35 -3 -7 0 -10 6 -6 6 3 13 2 17 -4 3 -5 0 -10 -7
-10 -10 0 -10 -2 1 -9 8 -5 10 -14 5 -22 -6 -12 -5 -12 9 0 14 11 17 11 17 -1
0 -8 15 -28 34 -45 27 -24 32 -33 23 -43 -7 -8 -8 -11 -1 -7 13 8 76 -58 66
-69 -4 -4 -1 -4 6 0 7 4 12 2 12 -6 0 -7 16 -30 35 -51 19 -21 33 -43 29 -48
-3 -5 -1 -8 4 -7 11 3 72 -69 72 -84 0 -5 5 -6 10 -3 6 3 10 -1 10 -9 0 -9 5
-16 10 -16 6 0 9 -6 8 -12 -2 -7 3 -12 10 -10 8 1 11 -2 7 -8 -3 -5 8 -23 25
-40 17 -17 28 -35 25 -40 -4 -6 -2 -9 3 -8 5 2 21 -10 36 -25 27 -30 34 -43
14 -31 -7 4 -8 3 -4 -5 4 -6 11 -9 16 -6 5 3 17 -7 27 -22 10 -15 24 -34 31
-42 7 -7 11 -20 8 -27 -3 -8 0 -11 9 -8 8 3 21 -6 32 -23 9 -15 22 -31 28 -35
6 -5 6 -8 0 -8 -5 0 -2 -5 8 -11 9 -6 15 -15 11 -20 -3 -5 0 -8 7 -7 7 2 14
-1 14 -7 3 -22 18 -45 29 -45 6 0 19 -12 29 -26 16 -21 17 -28 6 -42 -11 -14
-11 -15 0 -5 15 13 41 -9 90 -78 14 -19 43 -55 65 -81 48 -56 51 -55 138 36
33 33 56 52 53 41 -5 -16 -5 -17 3 -5 6 8 9 17 7 21 -3 3 7 16 20 29 13 13 22
27 18 33 -3 6 -1 7 4 4 10 -6 28 17 69 86 9 14 13 15 17 5 3 -7 6 -3 6 9 1 12
7 26 14 30 6 4 24 31 39 58 14 28 31 49 38 47 6 -1 9 2 5 8 -9 14 4 52 16 44
5 -3 8 -2 7 3 -2 4 9 33 24 63 14 30 38 82 53 115 15 33 31 69 36 80 5 11 10
31 11 45 2 14 7 28 11 31 9 6 47 169 68 289 19 111 18 627 -1 615 -4 -3 -11
21 -15 53 -3 31 -13 79 -21 106 -8 27 -12 52 -9 54 3 3 -2 13 -10 22 -9 10
-15 21 -14 26 1 5 -3 22 -9 37 -7 16 -10 33 -6 38 5 9 -24 69 -40 80 -5 4 -6
16 -4 27 4 13 2 19 -6 16 -6 -2 -13 5 -14 16 -1 11 -3 29 -4 39 -1 11 -5 18
-8 16 -7 -4 -55 86 -52 98 1 4 -2 7 -8 7 -5 0 -10 7 -10 16 0 9 -5 12 -11 8
-7 -4 -10 -1 -7 7 3 8 -8 31 -24 51 -16 21 -27 42 -23 48 3 5 2 10 -4 10 -10
0 -70 80 -67 91 0 3 -12 18 -29 33 -16 16 -29 31 -28 35 1 4 -30 38 -68 75
-38 38 -69 71 -69 73 0 2 -14 16 -30 30 -26 21 -29 28 -18 42 12 14 11 15 -5
2 -15 -12 -20 -11 -39 5 -42 36 -48 43 -48 53 0 6 -4 12 -10 12 -5 1 -13 2
-17 3 -12 2 -63 38 -92 66 -14 13 -30 25 -36 25 -22 2 -65 29 -65 42 0 7 -5
13 -11 13 -5 0 -7 -6 -3 -12 4 -7 -2 -5 -13 5 -11 9 -25 17 -32 17 -7 0 -9 5
-6 10 4 6 3 9 -2 8 -13 -4 -83 24 -83 34 0 4 -7 8 -16 8 -10 0 -14 5 -10 15 4
13 2 13 -14 5 -24 -13 -33 -13 -25 0 4 6 3 9 -2 8 -12 -4 -173 54 -169 61 2 3
-15 7 -37 9 -23 2 -46 7 -52 13 -7 7 -4 8 10 3 11 -4 17 -4 13 0 -3 4 -26 9
-50 11 -48 3 -108 14 -122 23 -5 3 -21 6 -35 8 -14 1 -60 7 -101 13 -78 11
-413 15 -422 6z m467 -40 c383 -57 709 -208 1002 -465 274 -239 492 -612 581
-995 132 -564 1 -1157 -354 -1612 -71 -91 -192 -216 -204 -211 -7 3 -42 47
-223 275 -78 99 -141 178 -561 706 l-228 287 -87 0 -87 0 -72 -51 -72 -51 29
-36 c16 -20 231 -290 477 -599 247 -309 479 -599 515 -645 l67 -83 -52 -33
c-86 -56 -285 -148 -411 -191 -481 -161 -993 -125 -1456 104 -275 136 -496
319 -676 559 -228 304 -347 619 -383 1013 -27 299 44 655 194 968 90 187 176
317 315 474 l65 73 20 -24 c12 -14 100 -119 196 -234 96 -114 186 -222 200
-240 129 -162 183 -223 208 -229 40 -10 52 -24 52 -59 0 -24 15 -50 66 -111
36 -44 102 -125 148 -180 45 -55 132 -161 192 -236 61 -75 122 -151 136 -168
l27 -31 73 55 c40 30 84 58 98 61 31 6 104 27 108 30 5 3 -466 588 -763 948
-126 154 -267 325 -312 380 -44 56 -106 130 -137 166 -31 36 -56 68 -56 72 0
3 42 31 93 61 236 141 534 239 812 267 115 11 331 4 460 -15z"/>
<path d="M4159 4334 c-24 -61 -33 -152 -22 -206 6 -29 8 -57 3 -61 -4 -4 -24
2 -45 14 -30 18 -56 23 -124 25 l-86 3 78 -9 c100 -12 163 -41 162 -77 0 -32
21 -42 30 -14 3 11 19 22 36 26 34 8 34 28 0 33 -13 2 -26 14 -32 28 -14 38
-11 153 6 208 17 54 12 76 -6 30z"/>
<path d="M4329 4169 c-6 -13 -11 -47 -10 -76 1 -40 -2 -55 -14 -59 -16 -6 -21
-34 -6 -34 21 0 42 51 35 85 -4 21 -1 48 6 65 15 37 7 51 -11 19z"/>
<path d="M4178 4010 c-30 -23 -40 -54 -24 -74 26 -33 128 38 113 78 -9 22 -59
20 -89 -4z m67 -10 c3 -5 1 -10 -5 -10 -6 0 -8 -5 -4 -12 4 -7 3 -8 -5 -4 -6
4 -14 1 -17 -8 -8 -20 -43 -16 -41 5 1 10 5 15 9 13 4 -3 8 0 8 6 0 6 4 9 9 5
5 -3 12 -1 16 5 8 13 22 13 30 0z"/>
<path d="M4254 3954 c-17 -18 -45 -37 -61 -40 -30 -6 -30 -7 -21 -47 15 -68
59 -138 134 -212 81 -81 188 -141 204 -115 36 56 -39 274 -127 375 -24 27 -83
75 -91 74 -4 0 -21 -16 -38 -35z m73 -21 c10 -15 35 -44 57 -65 21 -22 36 -42
33 -45 -4 -3 1 -12 9 -20 8 -9 13 -22 10 -30 -3 -8 -2 -12 3 -9 5 3 17 -13 26
-37 31 -77 31 -73 13 -59 -12 9 -18 10 -23 2 -4 -6 -4 -14 -1 -17 3 -4 6 -1 6
5 0 7 8 4 18 -6 20 -20 28 -97 9 -85 -7 4 -14 8 -17 9 -41 8 -60 18 -56 31 3
8 1 11 -4 8 -5 -3 -23 1 -40 10 -27 14 -30 18 -18 33 9 11 9 14 1 8 -16 -9
-56 12 -48 25 4 5 0 9 -7 9 -17 0 -41 38 -32 52 4 6 3 8 -3 5 -6 -4 -18 4 -27
18 -9 14 -13 25 -10 25 4 0 -1 9 -11 20 -10 11 -15 28 -12 40 3 11 1 18 -4 14
-5 -3 -9 2 -9 12 0 11 6 15 20 11 10 -3 21 0 24 7 2 6 5 4 5 -5 1 -9 7 -19 14
-22 8 -3 21 -20 30 -39 9 -18 37 -60 62 -93 26 -35 43 -66 40 -75 -4 -8 -3
-11 1 -8 8 8 21 -4 53 -50 13 -18 25 -31 28 -29 2 3 -47 80 -109 172 l-112
167 24 19 c33 24 36 24 57 -8z m41 -38 c-3 -3 -9 2 -12 12 -6 14 -5 15 5 6 7
-7 10 -15 7 -18z m26 -21 c3 -8 2 -12 -4 -9 -6 3 -10 10 -10 16 0 14 7 11 14
-7z"/>
<path d="M4276 3932 c-3 -5 1 -9 9 -9 8 0 12 4 9 9 -3 4 -7 8 -9 8 -2 0 -6 -4
-9 -8z"/>
<path d="M4316 3734 c-4 -9 -4 -19 -1 -22 3 -3 5 1 5 8 0 9 5 7 16 -6 14 -18
14 -18 3 6 -16 33 -16 33 -23 14z"/>
<path d="M4350 3646 c0 -2 7 -7 16 -10 8 -3 12 -2 9 4 -6 10 -25 14 -25 6z"/>
<path d="M4367 3983 c-13 -12 -7 -25 8 -19 8 3 31 -2 52 -10 35 -15 40 -15 70
2 44 23 43 38 -1 17 -32 -15 -37 -15 -75 1 -48 18 -46 18 -54 9z"/>
<path d="M3993 3923 c-34 -7 -28 -20 7 -15 19 3 43 -3 65 -17 29 -17 40 -19
60 -9 14 6 25 18 25 26 0 12 -4 12 -25 -2 -23 -15 -27 -15 -60 4 -20 11 -39
19 -43 19 -4 -1 -17 -4 -29 -6z"/>
<path d="M1840 3911 c-84 -27 -141 -84 -165 -163 -17 -57 -12 -135 9 -153 18
-16 38 -109 31 -146 -5 -32 -3 -35 33 -53 42 -19 166 -116 158 -123 -2 -2 -25
12 -51 31 -62 48 -121 82 -172 100 l-41 14 -18 -46 c-9 -25 -31 -64 -48 -87
l-32 -41 -19 31 c-27 40 -83 58 -162 52 l-63 -5 0 34 c0 20 5 34 13 35 12 1
125 0 139 -1 4 0 8 -12 10 -26 2 -17 11 -30 26 -35 21 -8 22 -6 22 34 0 69
-15 81 -109 85 -45 2 -92 2 -104 -2 -27 -6 -47 -44 -47 -89 0 -26 -6 -35 -32
-47 -65 -31 -73 -54 -76 -230 -3 -127 1 -181 18 -277 25 -143 84 -322 150
-460 l49 -103 43 0 c54 1 78 18 78 57 0 26 7 33 57 59 52 26 114 89 173 174
15 21 15 21 37 3 l22 -19 -28 -50 c-45 -78 -120 -147 -195 -180 l-66 -28 0
-89 c0 -82 2 -92 30 -132 28 -41 33 -44 102 -55 97 -17 274 -8 356 18 45 15
62 17 62 8 0 -14 -48 -31 -145 -52 -68 -15 -185 -17 -260 -4 -27 4 -51 7 -53
5 -7 -6 178 -192 246 -247 69 -55 283 -200 288 -195 1 1 -9 103 -22 226 -13
123 -23 225 -22 225 37 13 125 66 163 97 85 70 133 138 223 317 47 94 92 172
99 172 7 0 20 11 28 24 12 17 28 25 62 29 36 4 53 12 71 34 30 37 53 90 46
108 -4 10 0 15 15 15 14 0 21 6 21 20 0 25 -29 40 -74 40 -20 0 -36 5 -36 11
0 7 19 9 59 4 54 -6 61 -5 73 15 7 12 51 50 98 84 181 133 174 130 258 136 76
5 77 5 80 34 3 27 3 28 -35 23 -124 -17 -145 -27 -276 -123 -71 -53 -136 -98
-145 -101 -9 -4 -27 -14 -40 -24 -13 -10 -30 -15 -37 -13 -8 3 -38 1 -67 -5
-43 -10 -63 -22 -105 -63 -44 -44 -58 -51 -90 -51 -21 0 -101 -8 -178 -19 -77
-10 -156 -20 -176 -23 -27 -4 -38 -1 -43 11 -3 8 -13 14 -22 12 -19 -4 -114
206 -114 252 0 75 -58 182 -119 223 -76 51 -161 40 -227 -27 -77 -81 -94 -178
-94 -564 0 -222 -3 -283 -12 -280 -17 6 -23 402 -9 573 11 146 34 212 92 272
35 35 40 43 26 49 -26 10 -4 40 40 55 129 42 267 -37 321 -184 23 -62 37 -157
23 -157 -5 0 -12 5 -14 10 -18 35 5 -20 43 -107 35 -80 49 -102 67 -106 20 -4
23 0 23 29 0 108 -38 270 -86 366 -13 26 -24 53 -24 60 0 6 -11 24 -25 38
l-26 27 21 48 c18 41 23 46 43 40 46 -15 107 -17 124 -4 26 22 63 110 63 151
0 27 -8 44 -31 67 -25 26 -29 36 -24 61 6 28 5 30 -23 30 -16 0 -58 3 -93 6
-54 4 -61 3 -44 -7 11 -7 38 -15 59 -17 22 -2 47 -7 57 -12 23 -13 30 -47 13
-61 -11 -9 -14 -8 -14 2 0 11 -3 11 -11 -1 -8 -11 -12 -12 -16 -2 -2 6 -9 12
-14 12 -6 0 -7 -6 -4 -12 4 -7 0 -5 -8 5 -8 9 -17 17 -21 17 -4 0 -22 12 -40
27 -19 14 -35 24 -38 22 -2 -2 -15 6 -28 19 -14 13 -26 18 -28 12 -3 -7 -12
-4 -25 7 -19 16 -20 16 -8 1 15 -20 1 -24 -18 -5 -10 10 -11 9 -6 -5 9 -23
-11 -56 -37 -62 -13 -2 3 -2 35 0 31 3 57 2 57 -3 0 -4 18 -17 41 -27 22 -11
43 -24 46 -29 3 -6 1 -7 -5 -3 -6 3 -13 2 -17 -3 -3 -6 5 -8 17 -6 13 2 31 -2
42 -10 16 -12 17 -18 7 -46 -6 -18 -11 -47 -11 -65 0 -24 -5 -34 -15 -34 -8 0
-15 -5 -15 -11 0 -5 -5 -7 -12 -3 -7 4 -8 3 -4 -4 4 -7 2 -12 -3 -12 -6 0 -11
-8 -12 -17 0 -11 -3 -13 -6 -5 -2 6 -9 10 -14 6 -16 -9 -33 7 -18 18 11 8 10
9 -3 4 -11 -3 -28 7 -49 29 -20 20 -38 31 -47 27 -9 -3 -13 -1 -9 5 4 6 -1 13
-11 15 -10 3 -18 15 -19 27 -1 12 2 19 9 15 6 -4 5 3 -2 16 -6 12 -9 24 -6 27
3 4 2 11 -3 17 -15 19 -19 55 -7 60 6 2 3 5 -7 5 -27 1 -10 21 18 21 13 0 26
3 28 8 3 4 -14 7 -36 7 -42 0 -42 0 -45 40 -4 45 16 116 35 128 7 4 13 15 13
23 0 9 5 12 12 8 6 -4 8 -3 5 3 -4 6 5 18 19 28 24 16 27 16 47 -2 11 -10 17
-13 14 -6 -4 6 -3 14 3 18 6 4 7 11 4 17 -5 7 2 9 20 4 18 -4 25 -3 21 4 -8
12 -8 12 35 -1 51 -15 73 -20 88 -21 8 -1 11 -9 9 -20 -5 -16 -3 -17 9 -7 11
9 14 8 14 -4 0 -8 7 -17 15 -21 9 -3 12 -12 8 -23 -3 -10 -2 -15 2 -11 5 5 14
-1 22 -11 12 -19 92 -37 138 -33 28 3 -44 -29 -75 -33 -14 -2 -63 -7 -110 -10
-47 -3 -89 -10 -93 -14 -13 -13 139 -13 201 -1 64 13 132 47 132 66 0 12 -51
22 -133 26 -33 2 -41 7 -63 45 -14 24 -43 53 -67 67 -46 27 -135 41 -177 27z
m0 -35 c0 -11 -19 -15 -25 -6 -3 5 1 10 9 10 9 0 16 -2 16 -4z m101 -288 c90
-62 84 -57 77 -64 -4 -3 -40 18 -82 47 -71 50 -78 52 -106 42 -34 -13 -36 -11
-14 11 25 25 46 19 125 -36z m187 -60 c19 -19 14 -58 -13 -116 -24 -52 -26
-53 -62 -50 -35 3 -38 5 -41 38 -6 59 15 108 51 124 41 18 50 19 65 4z m-651
-123 c0 -8 -4 -12 -9 -9 -5 3 -6 10 -3 15 9 13 12 11 12 -6z m206 -27 c12 -7
27 -13 34 -14 6 -1 22 -12 35 -24 13 -13 17 -19 9 -15 -10 6 -12 4 -7 -4 6 -9
11 -9 24 1 13 11 14 11 7 -1 -6 -11 -4 -13 8 -8 10 4 16 2 14 -6 -1 -7 8 -12
20 -11 14 1 20 -3 16 -12 -4 -10 0 -12 13 -8 16 5 16 4 4 -5 -13 -9 -13 -11 0
-12 8 -1 20 -1 25 -1 6 1 22 -17 37 -38 15 -22 23 -40 18 -40 -6 0 -10 -5 -10
-11 0 -5 5 -7 10 -4 6 3 10 -1 10 -9 0 -8 6 -19 13 -23 14 -8 35 -59 43 -103
2 -14 9 -37 15 -52 6 -15 9 -34 6 -42 -3 -7 0 -19 6 -25 6 -6 11 -36 11 -66 1
-45 -1 -52 -11 -39 -6 9 -9 23 -6 32 4 9 2 13 -4 9 -7 -4 -14 5 -18 23 -4 16
-10 30 -14 30 -5 0 -8 31 -7 70 1 38 -2 70 -5 70 -7 0 -22 44 -24 66 0 6 -8
23 -18 38 -10 15 -17 30 -14 32 5 6 -68 80 -99 101 -12 7 -32 16 -45 19 -94
19 -115 22 -123 13 -17 -16 -29 -10 -15 8 10 11 10 14 2 9 -20 -11 -15 12 6
33 14 14 16 21 8 25 -7 2 -8 5 -4 5 5 1 18 -4 30 -11z m-397 -64 c-3 -8 -2
-12 4 -9 6 3 10 -1 10 -9 0 -10 6 -13 15 -10 8 4 12 10 9 15 -3 5 0 9 5 9 6 0
11 -3 11 -7 0 -5 25 -6 56 -5 45 3 55 1 48 -10 -6 -11 -5 -11 8 0 14 11 22 7
53 -25 20 -21 41 -38 46 -38 5 0 8 -4 7 -10 -2 -5 -6 -9 -10 -7 -5 1 -8 -3 -8
-9 0 -5 -5 -7 -12 -3 -6 4 -8 3 -5 -3 4 -6 -3 -19 -14 -29 -23 -21 -49 -77
-49 -106 0 -10 -3 -17 -8 -14 -12 7 -16 -96 -17 -412 l0 -292 -59 0 c-57 0
-58 1 -54 25 3 13 1 22 -3 19 -5 -3 -9 3 -9 13 0 10 -9 32 -20 48 -11 17 -20
39 -20 50 0 11 -9 38 -21 59 -11 21 -18 45 -15 53 3 7 1 21 -4 31 -18 31 -50
147 -41 150 10 3 3 41 -12 60 -5 7 -7 34 -4 60 4 31 3 40 -3 27 -5 -12 -6 45
-3 140 6 169 16 205 55 205 11 0 16 4 12 11 -4 8 1 9 17 5 13 -3 18 -3 11 0
-10 5 -10 9 -1 20 15 19 33 18 25 -2z m462 -105 c19 -6 29 -15 25 -22 -4 -6 0
-8 9 -4 18 6 62 -35 51 -48 -5 -4 -3 -6 2 -3 11 7 28 -10 33 -32 2 -8 10 -28
18 -44 8 -16 14 -50 14 -76 0 -26 7 -61 16 -79 9 -18 17 -43 18 -56 0 -13 5
-21 10 -17 5 3 6 -2 3 -12 -4 -9 -3 -15 1 -12 8 4 37 -50 30 -57 -6 -7 31 -37
56 -47 14 -5 26 -17 26 -27 0 -12 3 -14 8 -6 4 7 38 14 75 17 37 3 102 11 145
20 118 22 132 24 132 14 0 -5 8 -7 18 -4 9 3 30 7 45 10 16 3 34 10 41 15 7 6
17 7 21 3 5 -4 6 -2 2 3 -3 6 7 25 22 42 22 25 31 29 40 20 10 -9 11 -8 5 7
-5 13 -4 17 4 12 6 -3 13 -2 17 4 3 5 12 10 18 10 8 0 8 -3 -1 -9 -10 -6 -8
-10 10 -16 12 -4 26 -8 31 -10 4 -1 14 -3 23 -4 8 0 13 -5 10 -10 -4 -5 4 -7
16 -4 23 4 23 4 3 -12 -12 -10 -19 -25 -17 -40 2 -16 -4 -27 -17 -35 -12 -6
-21 -16 -21 -23 0 -7 4 -6 10 3 6 9 10 10 10 3 0 -14 -27 -43 -41 -43 -5 0
-11 0 -14 0 -3 0 -25 -9 -51 -20 -25 -11 -51 -17 -57 -13 -7 4 -7 0 1 -9 9
-12 10 -18 2 -23 -6 -4 -14 -4 -17 -1 -4 3 0 6 8 6 10 1 8 4 -4 11 -10 6 -20
9 -21 7 -2 -1 -40 -77 -86 -168 -83 -167 -144 -263 -196 -311 -37 -34 -153
-109 -170 -109 -13 0 -25 79 -14 95 4 6 11 78 15 162 l7 151 -38 -9 c-107 -24
-162 -2 -242 98 -27 34 -52 59 -56 56 -3 -3 -6 1 -6 10 0 21 -123 252 -127
240 -2 -6 2 -23 8 -39 7 -16 13 -38 14 -48 1 -10 10 -25 20 -32 11 -8 15 -14
11 -14 -4 0 2 -13 14 -30 12 -16 18 -35 14 -41 -4 -7 -3 -9 3 -6 6 4 14 0 17
-9 3 -8 2 -13 -3 -10 -5 3 -11 -1 -14 -9 -4 -10 -1 -12 10 -8 13 5 12 1 -3
-23 -10 -16 -21 -31 -25 -34 -3 -3 -11 -15 -18 -28 -7 -12 -16 -20 -21 -17 -6
3 -7 0 -4 -8 3 -8 -11 -25 -36 -42 -22 -15 -40 -31 -40 -35 0 -13 -40 -19 -41
-7 0 7 0 48 0 92 -1 44 -1 100 -2 125 -1 25 0 92 1 150 1 58 2 130 3 160 0 30
5 73 11 95 6 22 11 48 10 58 0 10 4 15 10 11 7 -5 9 -1 5 9 -3 9 -2 19 4 23 6
3 8 12 5 19 -2 7 2 16 10 19 9 3 12 1 9 -4 -3 -6 -1 -10 5 -10 6 0 9 8 6 18
-6 18 32 62 65 75 24 9 64 8 97 -4z m37 -750 c-4 -6 0 -9 11 -7 12 2 23 -5 29
-19 15 -34 110 -66 169 -58 l46 7 -1 -103 c-1 -101 -10 -136 -32 -122 -6 3 -7
1 -3 -6 6 -8 11 -9 21 -1 9 8 11 5 7 -15 -2 -14 -7 -23 -11 -20 -4 2 -7 -14
-6 -35 1 -40 -7 -49 -50 -55 -11 -2 -40 -8 -65 -15 -26 -8 -96 -13 -166 -12
-129 1 -188 15 -201 49 -4 10 -10 21 -15 24 -16 10 -15 166 1 181 10 9 12 9 7
1 -5 -9 -2 -11 8 -7 9 3 13 11 10 16 -5 7 4 9 24 6 17 -2 29 -1 27 2 -3 4 15
22 38 41 23 18 48 41 55 51 7 9 19 24 28 32 8 8 15 19 15 23 1 4 4 14 8 21 6
11 10 10 21 -3 7 -8 10 -19 6 -22 -4 -4 -11 -1 -16 7 -6 8 -10 11 -10 5 0 -20
17 -38 24 -26 4 6 13 8 19 4 7 -4 4 5 -6 20 -17 27 -16 47 4 47 6 0 7 -5 4
-11z m-330 -157 c9 -23 -4 -32 -45 -32 -35 0 -50 12 -50 39 0 14 89 7 95 -7z
m592 -327 c0 -8 -3 -15 -7 -15 -4 0 -6 -15 -4 -32 7 -89 34 -316 40 -334 3
-13 0 -25 -7 -29 -8 -5 -10 -4 -5 3 4 8 0 12 -11 12 -22 1 -58 27 -58 43 0 7
-8 11 -18 9 -9 -2 -17 2 -17 8 0 6 -4 9 -9 6 -5 -3 -11 1 -15 9 -3 8 -12 15
-19 15 -8 0 -22 10 -31 23 -9 12 -14 16 -10 8 5 -9 3 -12 -4 -7 -7 4 -12 14
-12 22 0 8 -5 14 -11 14 -5 0 -7 -6 -3 -12 4 -7 -10 4 -32 24 -21 21 -48 45
-59 54 -11 8 -13 13 -5 9 8 -3 7 0 -4 7 -34 24 -86 75 -86 86 0 6 -6 12 -12
15 -7 2 16 3 52 2 36 -2 101 1 145 6 44 5 91 10 104 10 18 1 21 3 10 10 -11 7
-10 9 6 10 11 1 23 1 28 0 4 0 7 5 8 12 0 6 4 3 9 -8 6 -14 9 -15 9 -4 1 8 6
20 13 27 15 15 15 15 15 -3z"/>
<path d="M1900 3221 c0 -6 4 -13 10 -16 6 -3 7 1 4 9 -7 18 -14 21 -14 7z"/>
<path d="M1181 3224 c0 -11 3 -14 6 -6 3 7 2 16 -1 19 -3 4 -6 -2 -5 -13z"/>
<path d="M1340 2369 c0 -5 5 -7 10 -4 6 3 10 8 10 11 0 2 -4 4 -10 4 -5 0 -10
-5 -10 -11z"/>
<path d="M1872 3020 c0 -14 2 -19 5 -12 2 6 2 18 0 25 -3 6 -5 1 -5 -13z"/>
<path d="M1666 2743 c79 -143 180 -274 229 -297 18 -9 50 -16 70 -16 83 0 479
120 495 150 5 10 24 22 42 26 29 6 30 8 13 14 -11 5 -30 6 -43 3 -12 -3 -34 2
-50 11 l-27 17 27 -23 c28 -23 28 -23 6 -37 -24 -15 -93 -41 -128 -47 -13 -3
-29 -9 -35 -13 -5 -4 -28 -13 -50 -19 -22 -6 -67 -19 -100 -29 -33 -9 -74 -17
-92 -17 -18 0 -30 -4 -26 -9 3 -5 -7 -6 -27 -2 -40 9 -63 13 -72 14 -5 1 -8 9
-9 19 0 10 -3 12 -6 5 -3 -10 -8 -10 -19 1 -8 8 -14 19 -14 24 0 5 -10 17 -22
26 -13 9 -18 14 -11 11 15 -7 8 34 -8 49 -8 8 -8 4 0 -14 11 -23 11 -23 -11 3
-13 16 -35 42 -50 58 -15 16 -27 32 -27 35 0 13 -74 124 -83 124 -5 0 7 -30
28 -67z"/>
<path d="M1636 2652 c-3 -5 1 -9 9 -9 8 0 12 4 9 9 -3 4 -7 8 -9 8 -2 0 -6 -4
-9 -8z"/>
<path d="M2403 2605 c0 -7 6 -11 14 -8 7 3 13 6 13 8 0 2 -6 5 -13 8 -8 3 -14
-1 -14 -8z"/>
<path d="M2195 2520 c-3 -6 1 -7 9 -4 18 7 21 14 7 14 -6 0 -13 -4 -16 -10z"/>
<path d="M1901 2494 c0 -11 3 -14 6 -6 3 7 2 16 -1 19 -3 4 -6 -2 -5 -13z"/>
<path d="M1825 1751 c-3 -5 -2 -12 3 -15 5 -3 9 1 9 9 0 17 -3 19 -12 6z"/>
<path d="M4484 3849 c-4 -7 -2 -15 4 -17 11 -3 51 -81 66 -128 4 -12 27 -30
54 -42 53 -24 62 -26 62 -14 0 5 -18 15 -40 22 -48 16 -49 17 -85 103 -31 74
-48 96 -61 76z"/>
<path d="M4136 3823 c-3 -3 -6 -27 -6 -53 0 -37 -5 -51 -25 -70 -13 -12 -22
-27 -19 -32 3 -5 19 5 34 22 21 24 29 44 32 82 3 48 -2 65 -16 51z"/>
<path d="M2026 3787 c3 -10 9 -15 12 -12 3 3 0 11 -7 18 -10 9 -11 8 -5 -6z"/>
<path d="M4226 3684 c-13 -33 -4 -49 54 -101 58 -53 60 -57 60 -103 0 -27 5
-52 10 -55 6 -4 10 15 10 50 0 55 -1 56 -60 111 -52 49 -58 60 -53 85 6 31
-10 41 -21 13z"/>
<path d="M4472 3225 c-7 -14 -12 -37 -12 -50 0 -28 -12 -32 -30 -10 -7 9 -27
15 -49 14 l-36 -1 35 -7 c50 -10 60 -18 60 -52 0 -31 16 -37 51 -19 24 13 24
32 0 54 -18 17 -18 60 0 72 11 7 12 24 1 24 -5 0 -14 -11 -20 -25z"/>
<path d="M4555 3224 c-12 -18 -15 -38 -12 -61 8 -44 -10 -85 -33 -78 -10 3
-23 -1 -30 -10 -19 -23 -54 -18 -80 11 -19 20 -31 24 -58 21 -48 -7 -52 -17
-7 -17 26 0 46 -7 61 -21 13 -12 37 -22 53 -23 40 -1 45 -36 6 -36 -16 0 -32
-11 -47 -30 -12 -16 -27 -30 -34 -30 -7 0 -16 -4 -19 -10 -14 -23 28 -7 53 20
29 31 85 50 96 32 3 -6 -5 -20 -20 -31 -23 -18 -25 -26 -22 -79 2 -39 -2 -65
-11 -76 -8 -9 -12 -19 -9 -22 3 -2 13 7 23 22 13 20 16 40 13 75 -4 41 -1 52
18 70 31 29 42 18 36 -39 -4 -44 -1 -51 28 -80 52 -53 90 -38 90 34 0 44 -30
94 -55 94 -8 0 -19 9 -25 20 -13 25 -32 27 -24 3 4 -10 -3 -4 -15 12 -11 17
-21 36 -21 43 0 8 -5 10 -12 6 -10 -6 -10 -4 0 8 9 11 9 18 2 21 -6 3 -5 4 2
3 7 -2 14 -8 14 -14 1 -7 2 -17 3 -24 2 -17 14 -1 18 24 2 12 9 31 17 43 9 14
10 30 4 54 -7 24 -5 37 5 50 22 25 29 41 19 41 -5 0 -17 -12 -27 -26z m30
-302 c-5 -13 -3 -13 12 -1 9 8 14 9 10 2 -4 -6 -2 -13 4 -15 7 -2 13 -19 14
-37 2 -27 -1 -32 -17 -28 -10 3 -16 1 -12 -4 3 -5 1 -9 -3 -9 -13 0 -34 40
-28 51 4 5 11 6 17 3 7 -4 8 -2 4 4 -4 6 -14 8 -23 5 -13 -5 -15 -3 -9 13 5
10 9 24 9 31 0 6 7 9 14 6 8 -3 12 -12 8 -21z"/>
<path d="M4669 3104 c-9 -11 -23 -14 -46 -11 -26 5 -36 1 -51 -18 -11 -14 -22
-22 -25 -18 -4 3 -5 -4 -2 -16 2 -11 0 -21 -6 -21 -5 0 -9 -4 -9 -9 0 -4 23
-8 51 -7 43 2 56 -2 82 -26 23 -20 42 -27 67 -27 l35 2 -32 6 c-17 3 -45 18
-62 34 -23 20 -41 27 -71 27 -45 0 -48 5 -21 38 13 15 30 22 54 22 21 0 41 7
52 20 10 11 13 20 8 20 -6 0 -17 -7 -24 -16z"/>
<path d="M4390 2638 c0 -18 -11 -45 -25 -64 -32 -41 -31 -52 1 -64 15 -6 36
-22 47 -36 16 -20 26 -25 48 -20 16 3 38 15 49 26 11 11 31 20 45 20 14 0 25
5 25 11 0 17 -60 2 -85 -21 -28 -26 -65 -27 -65 -1 0 26 -25 44 -50 36 -26 -8
-26 8 -1 43 24 32 39 102 22 102 -6 0 -11 -14 -11 -32z"/>
<path d="M4230 2629 c0 -8 9 -25 20 -39 11 -14 20 -34 20 -45 0 -23 16 -52 24
-44 8 8 -23 90 -44 117 -12 14 -20 19 -20 11z"/>
<path d="M1719 2493 c-13 -16 -12 -17 4 -4 9 7 17 15 17 17 0 8 -8 3 -21 -13z"/>
<path d="M4310 2495 c-11 -13 -11 -20 1 -41 21 -41 89 -69 104 -43 27 43 -73
123 -105 84z m39 -22 c-10 -12 -11 -15 -1 -9 18 11 48 -14 30 -25 -19 -12 -22
-11 -37 12 -11 18 -11 23 1 30 20 13 22 11 7 -8z"/>
<path d="M4167 2489 c-10 -6 -34 -9 -53 -7 -38 4 -46 -6 -11 -16 25 -6 127 14
127 26 0 12 -42 9 -63 -3z"/>
<path d="M4237 2455 c-130 -89 -123 -273 10 -252 49 8 82 33 115 88 46 76 45
85 -7 108 -33 15 -50 29 -58 51 -6 16 -14 30 -17 30 -3 0 -22 -11 -43 -25z
m54 -32 c8 -21 6 -30 -7 -42 -15 -15 -16 -15 -11 1 3 10 1 20 -6 24 -7 4 -9 4
-5 -1 4 -4 3 -17 -3 -28 -8 -14 -8 -18 0 -13 23 15 9 -11 -29 -53 -22 -24 -40
-47 -40 -52 0 -15 -17 -10 -24 7 -3 8 -2 13 2 10 4 -3 14 5 22 17 12 20 12 21
-3 8 -15 -12 -17 -11 -17 12 0 13 7 30 15 37 9 7 13 20 10 29 -3 8 -3 12 1 9
3 -4 20 8 37 27 37 42 44 43 58 8z m45 -38 c4 -8 12 -15 20 -15 8 0 14 -5 14
-11 0 -18 -21 -50 -30 -44 -4 3 -6 -5 -2 -17 3 -14 2 -19 -6 -14 -7 4 -12 1
-12 -8 0 -9 -5 -16 -11 -16 -7 0 -17 -7 -24 -16 -15 -21 -99 -28 -91 -8 8 22
120 164 129 164 4 0 10 -7 13 -15z"/>
<path d="M4186 2332 c-3 -5 1 -9 9 -9 8 0 12 4 9 9 -3 4 -7 8 -9 8 -2 0 -6 -4
-9 -8z"/>
<path d="M4107 2379 c-19 -26 -39 -42 -58 -46 -45 -9 -47 -25 -2 -18 22 4 44
16 53 29 8 11 25 31 36 43 20 19 21 33 5 33 -3 0 -19 -19 -34 -41z"/>
<path d="M4410 2380 c0 -5 9 -10 19 -10 11 0 33 -13 49 -30 32 -31 66 -44 42
-15 -7 8 -18 15 -25 15 -6 0 -17 11 -23 25 -8 17 -20 25 -37 25 -14 0 -25 -4
-25 -10z"/>
<path d="M4390 2314 c0 -5 5 -15 11 -21 7 -7 8 -22 0 -48 -10 -37 2 -85 21
-85 11 0 10 7 -4 29 -9 15 -9 28 0 58 10 34 9 40 -8 58 -11 11 -20 15 -20 9z"/>
<path d="M4340 2227 c0 -14 -12 -35 -30 -50 -24 -22 -30 -34 -28 -65 1 -34 1
-35 5 -6 2 19 18 44 39 65 34 33 43 62 24 74 -6 3 -10 -4 -10 -18z"/>
<path d="M1585 4831 c-3 -5 -2 -12 3 -15 5 -3 9 1 9 9 0 17 -3 19 -12 6z"/>
<path d="M4414 4818 l-19 -23 23 19 c12 11 22 21 22 23 0 8 -8 2 -26 -19z"/>
<path d="M4485 4770 c-3 -6 1 -7 9 -4 18 7 21 14 7 14 -6 0 -13 -4 -16 -10z"/>
<path d="M1328 4598 c-7 -17 15 -19 29 -3 4 4 3 5 -4 2 -6 -4 -13 -2 -15 5 -3
8 -6 6 -10 -4z"/>
<path d="M4366 4552 c-3 -6 1 -15 8 -21 8 -7 17 -8 20 -3 3 6 -1 15 -8 21 -8
7 -17 8 -20 3z"/>
<path d="M2016 4497 c3 -10 9 -15 12 -12 3 3 0 11 -7 18 -10 9 -11 8 -5 -6z"/>
<path d="M4816 4328 c3 -5 10 -6 15 -3 13 9 11 12 -6 12 -8 0 -12 -4 -9 -9z"/>
<path d="M1386 4307 c3 -10 9 -15 12 -12 3 3 0 11 -7 18 -10 9 -11 8 -5 -6z"/>
<path d="M5151 2864 c0 -11 3 -14 6 -6 3 7 2 16 -1 19 -3 4 -6 -2 -5 -13z"/>
<path d="M2557 1019 c7 -7 15 -10 18 -7 3 3 -2 9 -12 12 -14 6 -15 5 -6 -5z"/>
<path d="M3450 1020 c-8 -5 -10 -10 -5 -10 6 0 17 5 25 10 8 5 11 10 5 10 -5
0 -17 -5 -25 -10z"/>
<path d="M1366 4763 c-6 -14 -5 -15 5 -6 7 7 10 15 7 18 -3 3 -9 -2 -12 -12z"/>
</g>
</svg>
