<svg xmlns="http://www.w3.org/2000/svg" viewBox="0 0 24 24" width="24" height="24" fill="currentColor">
  <path d="M12 .5C5.65.5.5 5.65.5 12c0 5.08 3.29 9.39 7.86 10.91.57.1.78-.25.78-.55v-1.93c-3.2.7-3.87-1.54-3.87-1.54-.52-1.32-1.27-1.67-1.27-1.67-1.04-.71.08-.7.08-.7 1.15.08 1.75 1.18 1.75 1.18 1.02 1.74 2.68 1.24 3.33.95.1-.74.4-1.24.72-1.52-2.55-.29-5.23-1.28-5.23-5.68 0-1.25.45-2.27 1.18-3.07-.12-.29-.51-1.46.11-3.04 0 0 .96-.31 3.15 1.17a10.9 10.9 0 0 1 5.74 0c2.18-1.48 3.14-1.17 3.14-1.17.63 1.58.24 2.75.12 3.04.73.8 1.18 1.82 1.18 3.07 0 4.41-2.69 5.39-5.25 5.67.41.36.77 1.08.77 2.18v3.23c0 .3.21.66.79.55A10.51 10.51 0 0 0 23.5 12c0-6.35-5.15-11.5-11.5-11.5z"/>
</svg>